<svg width="230" height="65" viewBox="0 0 271 80" fill="none" xmlns="http://www.w3.org/2000/svg">
<path d="M29.9769 38.565C15.2951 28.5356 7.86375 19.0841 0 0.179369C0 0.179369 41.2994 0.0155315 54.4847 0.179369C67.6699 0.343205 76.9845 14.5291 83.631 21.8834H31.4308C27.7591 26.8486 25.9447 31.5984 29.9769 38.565Z" fill="#7725A6"/>
<path d="M29.9769 41.435C15.2951 51.4644 7.86375 60.9159 0 79.8207C0 79.8207 41.2994 79.9847 54.4847 79.8207C67.6699 79.6567 76.9845 65.4709 83.631 58.1166H31.4308C27.7591 53.1514 25.9447 48.4016 29.9769 41.435Z" fill="#AA59D9"/>
<path d="M85.3778 25.6502H67.2923C72.7012 29.812 74.1554 32.6603 74.2217 38.565H88.131C88.131 32.5896 87.4485 29.9548 85.3778 25.6502Z" fill="#AA59D9"/>
<path d="M85.4378 53.4529H67.2923C72.7192 49.5801 74.1783 46.9297 74.2446 41.435H88.2C88.2 46.9955 87.5153 49.4473 85.4378 53.4529Z" fill="#7725A6"/>
<path d="M101 74.79V64.29H104.2V35.56H101V25H126.98C134.107 25 139.773 26.95 143.98 30.85C148.18 34.7567 150.28 41.1033 150.28 49.89C150.28 58.6833 148.18 65.03 143.98 68.93C139.773 72.8367 134.107 74.79 126.98 74.79H101ZM122.12 64.29H125.83C127.283 64.29 128.373 63.9067 129.1 63.14C129.82 62.3733 130.18 61.18 130.18 59.56V40.23C130.18 37.07 128.73 35.49 125.83 35.49H122.12V64.29ZM168.65 75.69C165.363 75.69 162.247 75.3167 159.3 74.57C156.36 73.8233 153.907 72.7867 151.94 71.46V60.2H164.74V60.84C164.74 63.14 165.85 64.29 168.07 64.29C169.223 64.29 170.087 63.9833 170.66 63.37C171.24 62.75 171.53 61.7767 171.53 60.45V35.49H165.77V25H192.65V35.49H189.45V57C189.45 63.2733 187.613 67.9567 183.94 71.05C180.273 74.1433 175.177 75.69 168.65 75.69ZM231.24 25L242.06 64.29H244.62V74.79H219.53V64.29H223.37L222.34 59.17H213.64L212.62 64.29H216.46V74.79H194.57V64.29H197.13L207.94 25H231.24ZM217.67 39.65L215.05 52.39H220.94L218.31 39.65H217.67ZM270.98 74.79H246.66V64.29H249.86V35.49H246.66V25H270.98V35.49H267.78V64.29H270.98V74.79Z" fill="#FCFCFC"/>
</svg>
