<svg width="553.0280029296874px" height="125.98399963378905px" xmlns="http://www.w3.org/2000/svg" viewBox="-26.514001464843716 12.008000183105473 553.0280029296874 125.98399963378905" style="background: rgb(95, 42, 98);" preserveAspectRatio="xMidYMid"><defs><linearGradient id="editing-gradient-gradient" x1="0" x2="1" y1="0.5" y2="0.5" gradientUnits="objectBoundingBox"><stop offset="0" stop-color="#a976c3"></stop><stop offset="1" stop-color="#a0de59"></stop></linearGradient></defs><g><g transform="translate(54.029990673065186, 104.08499717712402)"><path d="M4.48 0L4.48-43.33L4.48-43.33Q4.93-43.33 6.40-43.36L6.40-43.36L6.40-43.36Q7.87-43.39 9.73-43.39L9.73-43.39L9.73-43.39Q11.58-43.39 13.57-43.42L13.57-43.42L13.57-43.42Q15.55-43.46 17.02-43.46L17.02-43.46L17.02-43.46Q27.90-43.46 33.15-38.05L33.15-38.05L33.15-38.05Q38.40-32.64 38.40-21.95L38.40-21.95L38.40-21.95Q38.40-11.26 33.02-5.57L33.02-5.57L33.02-5.57Q27.65 0.13 16.19 0.13L16.19 0.13L16.19 0.13Q14.21 0.13 12.32 0.10L12.32 0.10L12.32 0.10Q10.43 0.06 8.86 0.06L8.86 0.06L8.86 0.06Q7.30 0.06 6.14 0.03L6.14 0.03L6.14 0.03Q4.99 0 4.48 0L4.48 0ZM16.13-37.76L16.13-37.76Q14.66-37.76 13.66-37.73L13.66-37.73L13.66-37.73Q12.67-37.70 12.10-37.70L12.10-37.70L12.10-5.63L12.10-5.63Q12.80-5.57 13.92-5.57L13.92-5.57L13.92-5.57Q15.04-5.57 17.15-5.57L17.15-5.57L17.15-5.57Q23.87-5.57 27.01-9.50L27.01-9.50L27.01-9.50Q30.14-13.44 30.14-21.25L30.14-21.25L30.14-21.25Q30.14-24.96 29.41-28L29.41-28L29.41-28Q28.67-31.04 26.98-33.22L26.98-33.22L26.98-33.22Q25.28-35.39 22.62-36.58L22.62-36.58L22.62-36.58Q19.97-37.76 16.13-37.76L16.13-37.76ZM53.25-43.33L53.25-1.60L53.25-1.60Q53.25 2.24 52.19 4.83L52.19 4.83L52.19 4.83Q51.14 7.42 49.50 9.22L49.50 9.22L49.50 9.22Q47.87 11.01 45.86 12.16L45.86 12.16L45.86 12.16Q43.84 13.31 41.92 14.27L41.92 14.27L38.91 9.22L38.91 9.22Q41.41 8 42.78 6.62L42.78 6.62L42.78 6.62Q44.16 5.25 44.80 3.94L44.80 3.94L44.80 3.94Q45.44 2.62 45.54 1.41L45.54 1.41L45.54 1.41Q45.63 0.19 45.63-0.83L45.63-0.83L45.63-43.33L53.25-43.33ZM57.41 0L74.05-43.33L80.06-43.33L96.77 0L88.64 0L84.67-11.33L69.06-11.33L64.96 0L57.41 0ZM71.10-16.96L82.69-16.96L82.69-16.96Q80.64-22.72 79.17-27.42L79.17-27.42L79.17-27.42Q77.70-32.13 76.93-34.82L76.93-34.82L76.93-34.82Q76.03-31.94 74.56-27.26L74.56-27.26L74.56-27.26Q73.09-22.59 71.10-16.96L71.10-16.96ZM100.93 0L100.93-43.33L108.54-43.33L108.54 0L100.93 0ZM161.54-39.30L157.63-34.62L157.63-34.62Q156.10-36.29 154.40-37.15L154.40-37.15L154.40-37.15Q152.70-38.02 150.46-38.02L150.46-38.02L150.46-38.02Q147.71-38.02 145.82-36.77L145.82-36.77L145.82-36.77Q143.94-35.52 142.78-33.31L142.78-33.31L142.78-33.31Q141.63-31.10 141.12-28.16L141.12-28.16L141.12-28.16Q140.61-25.22 140.61-21.82L140.61-21.82L140.61-21.82Q140.61-18.43 141.09-15.49L141.09-15.49L141.09-15.49Q141.57-12.54 142.75-10.30L142.75-10.30L142.75-10.30Q143.94-8.06 145.95-6.78L145.95-6.78L145.95-6.78Q147.97-5.50 151.04-5.50L151.04-5.50L151.04-5.50Q152.51-5.50 153.86-5.76L153.86-5.76L153.86-5.76Q155.20-6.02 156.32-6.30L156.32-6.30L156.32-6.30Q157.44-6.59 158.18-6.85L158.18-6.85L158.18-6.85Q158.91-7.10 159.10-7.17L159.10-7.17L160.90-1.79L160.06-1.47L160.06-1.47Q159.23-1.15 157.73-0.74L157.73-0.74L157.73-0.74Q156.22-0.32 154.14 0.03L154.14 0.03L154.14 0.03Q152.06 0.38 149.57 0.38L149.57 0.38L149.57 0.38Q140.99 0.38 136.67-5.09L136.67-5.09L136.67-5.09Q132.35-10.56 132.35-21.12L132.35-21.12L132.35-21.12Q132.35-26.18 133.50-30.37L133.50-30.37L133.50-30.37Q134.66-34.56 136.99-37.57L136.99-37.57L136.99-37.57Q139.33-40.58 142.88-42.24L142.88-42.24L142.88-42.24Q146.43-43.90 151.23-43.90L151.23-43.90L151.23-43.90Q155.07-43.90 157.54-42.50L157.54-42.50L157.54-42.50Q160-41.09 161.54-39.30L161.54-39.30ZM183.81-43.90L183.81-43.90Q188.61-43.90 192-42.37L192-42.37L192-42.37Q195.39-40.83 197.60-38.02L197.60-38.02L197.60-38.02Q199.81-35.20 200.83-31.14L200.83-31.14L200.83-31.14Q201.86-27.07 201.86-22.02L201.86-22.02L201.86-22.02Q201.86-17.02 200.74-12.90L200.74-12.90L200.74-12.90Q199.62-8.77 197.28-5.82L197.28-5.82L197.28-5.82Q194.94-2.88 191.39-1.25L191.39-1.25L191.39-1.25Q187.84 0.38 182.98 0.38L182.98 0.38L182.98 0.38Q178.18 0.38 174.75-1.06L174.75-1.06L174.75-1.06Q171.33-2.50 169.12-5.28L169.12-5.28L169.12-5.28Q166.91-8.06 165.89-12.03L165.89-12.03L165.89-12.03Q164.86-16 164.86-21.12L164.86-21.12L164.86-21.12Q164.86-26.11 165.98-30.30L165.98-30.30L165.98-30.30Q167.10-34.50 169.44-37.54L169.44-37.54L169.44-37.54Q171.78-40.58 175.36-42.24L175.36-42.24L175.36-42.24Q178.94-43.90 183.81-43.90L183.81-43.90ZM182.91-38.02L182.91-38.02Q180.10-38.02 178.24-36.77L178.24-36.77L178.24-36.77Q176.38-35.52 175.23-33.34L175.23-33.34L175.23-33.34Q174.08-31.17 173.60-28.22L173.60-28.22L173.60-28.22Q173.12-25.28 173.12-21.82L173.12-21.82L173.12-21.82Q173.12-18.56 173.57-15.62L173.57-15.62L173.57-15.62Q174.02-12.67 175.20-10.43L175.20-10.43L175.20-10.43Q176.38-8.19 178.46-6.85L178.46-6.85L178.46-6.85Q180.54-5.50 183.87-5.50L183.87-5.50L183.87-5.50Q186.62-5.50 188.51-6.72L188.51-6.72L188.51-6.72Q190.40-7.94 191.55-10.05L191.55-10.05L191.55-10.05Q192.70-12.16 193.18-15.07L193.18-15.07L193.18-15.07Q193.66-17.98 193.66-21.38L193.66-21.38L193.66-21.38Q193.66-24.64 193.22-27.65L193.22-27.65L193.22-27.65Q192.77-30.66 191.58-32.96L191.58-32.96L191.58-32.96Q190.40-35.26 188.32-36.64L188.32-36.64L188.32-36.64Q186.24-38.02 182.91-38.02L182.91-38.02ZM209.22 0L209.22-43.33L209.22-43.33Q209.66-43.33 211.14-43.36L211.14-43.36L211.14-43.36Q212.61-43.39 214.46-43.39L214.46-43.39L214.46-43.39Q216.32-43.39 218.30-43.42L218.30-43.42L218.30-43.42Q220.29-43.46 221.76-43.46L221.76-43.46L221.76-43.46Q232.64-43.46 237.89-38.05L237.89-38.05L237.89-38.05Q243.14-32.64 243.14-21.95L243.14-21.95L243.14-21.95Q243.14-11.26 237.76-5.57L237.76-5.57L237.76-5.57Q232.38 0.13 220.93 0.13L220.93 0.13L220.93 0.13Q218.94 0.13 217.06 0.10L217.06 0.10L217.06 0.10Q215.17 0.06 213.60 0.06L213.60 0.06L213.60 0.06Q212.03 0.06 210.88 0.03L210.88 0.03L210.88 0.03Q209.73 0 209.22 0L209.22 0ZM220.86-37.76L220.86-37.76Q219.39-37.76 218.40-37.73L218.40-37.73L218.40-37.73Q217.41-37.70 216.83-37.70L216.83-37.70L216.83-5.63L216.83-5.63Q217.54-5.57 218.66-5.57L218.66-5.57L218.66-5.57Q219.78-5.57 221.89-5.57L221.89-5.57L221.89-5.57Q228.61-5.57 231.74-9.50L231.74-9.50L231.74-9.50Q234.88-13.44 234.88-21.25L234.88-21.25L234.88-21.25Q234.88-24.96 234.14-28L234.14-28L234.14-28Q233.41-31.04 231.71-33.22L231.71-33.22L231.71-33.22Q230.02-35.39 227.36-36.58L227.36-36.58L227.36-36.58Q224.70-37.76 220.86-37.76L220.86-37.76ZM250.37 0L250.37-43.33L276.10-43.33L276.10-37.57L257.98-37.57L257.98-25.47L272.90-25.47L271.94-19.65L257.98-19.65L257.98-5.76L277.06-5.76L277.06 0L250.37 0ZM302.34 14.27L299.39 9.22L299.39 9.22Q302.27 7.81 303.81 6.11L303.81 6.11L303.81 6.11Q305.34 4.42 306.08 2.66L306.08 2.66L306.08 2.66Q306.82 0.90 306.91-0.86L306.91-0.86L306.91-0.86Q307.01-2.62 307.01-4.16L307.01-4.16L307.01-5.06L307.01-5.06Q305.54-2.37 302.72-0.93L302.72-0.93L302.72-0.93Q299.90 0.51 296.19 0.51L296.19 0.51L296.19 0.51Q292.16 0.51 289.28-1.02L289.28-1.02L289.28-1.02Q286.40-2.56 284.54-5.41L284.54-5.41L284.54-5.41Q282.69-8.26 281.82-12.22L281.82-12.22L281.82-12.22Q280.96-16.19 280.96-21.06L280.96-21.06L280.96-21.06Q280.96-26.05 282.11-30.24L282.11-30.24L282.11-30.24Q283.26-34.43 285.60-37.47L285.60-37.47L285.60-37.47Q287.94-40.51 291.49-42.21L291.49-42.21L291.49-42.21Q295.04-43.90 299.90-43.90L299.90-43.90L299.90-43.90Q304.19-43.90 307.10-42.50L307.10-42.50L307.10-42.50Q310.02-41.09 311.68-39.36L311.68-39.36L307.97-34.50L307.97-34.50Q306.30-36.16 303.90-37.09L303.90-37.09L303.90-37.09Q301.50-38.02 299.01-38.02L299.01-38.02L299.01-38.02Q296.26-38.02 294.40-36.74L294.40-36.74L294.40-36.74Q292.54-35.46 291.39-33.25L291.39-33.25L291.39-33.25Q290.24-31.04 289.73-28.06L289.73-28.06L289.73-28.06Q289.22-25.09 289.22-21.70L289.22-21.70L289.22-21.70Q289.22-18.05 289.70-15.07L289.70-15.07L289.70-15.07Q290.18-12.10 291.17-9.95L291.17-9.95L291.17-9.95Q292.16-7.81 293.76-6.62L293.76-6.62L293.76-6.62Q295.36-5.44 297.66-5.44L297.66-5.44L297.66-5.44Q299.14-5.44 300.67-6.11L300.67-6.11L300.67-6.11Q302.21-6.78 303.46-8.03L303.46-8.03L303.46-8.03Q304.70-9.28 305.47-11.07L305.47-11.07L305.47-11.07Q306.24-12.86 306.24-15.17L306.24-15.17L306.24-20.99L313.73-20.99L313.73-1.73L313.73-1.73Q313.73 2.18 312.67 4.80L312.67 4.80L312.67 4.80Q311.62 7.42 309.98 9.18L309.98 9.18L309.98 9.18Q308.35 10.94 306.34 12.13L306.34 12.13L306.34 12.13Q304.32 13.31 302.34 14.27L302.34 14.27ZM321.41 0L321.41-43.33L347.14-43.33L347.14-37.57L329.02-37.57L329.02-25.47L343.94-25.47L342.98-19.65L329.02-19.65L329.02-5.76L348.10-5.76L348.10 0L321.41 0ZM380.03-20.67L379.84-43.33L387.46-43.33L387.46 0.06L381.12 0.06L366.53-22.72L366.53-22.72Q365.31-24.58 363.87-26.91L363.87-26.91L363.87-26.91Q362.43-29.25 361.15-31.23L361.15-31.23L361.15-31.23Q361.34-29.18 361.50-26.94L361.50-26.94L361.50-26.94Q361.66-24.70 361.66-22.66L361.66-22.66L361.86 0L354.24 0L354.24-43.46L360.19-43.46L375.23-20.93L375.23-20.93Q376.51-19.07 377.82-16.99L377.82-16.99L377.82-16.99Q379.14-14.91 380.42-12.99L380.42-12.99L380.42-12.99Q380.29-15.04 380.16-17.12L380.16-17.12L380.16-17.12Q380.03-19.20 380.03-20.67L380.03-20.67Z" fill="url(#editing-gradient-gradient)"></path></g></g><style>text {
  font-size: 64px;
  font-family: Arial Black;
  dominant-baseline: central;
  text-anchor: middle;
}</style></svg>