<svg width="74" height="67" viewBox="0 0 74 67" fill="none" xmlns="http://www.w3.org/2000/svg">
<path d="M25.5874 32.2436C13.4915 23.835 7.3691 15.9108 0.890411 0.0610495C0.890411 0.0610495 34.9156 -0.0763119 45.7786 0.0610495C56.6414 0.19841 64.3155 12.0919 69.7913 18.2577H26.7852C23.7603 22.4206 22.2655 26.4028 25.5874 32.2436Z" fill="#7725A6"/>
<path d="M25.5874 34.6498C13.4915 43.0585 7.3691 50.9826 0.890411 66.8324C0.890411 66.8324 34.9156 66.9699 45.7786 66.8324C56.6414 66.6949 64.3155 54.8015 69.7913 48.6357H26.7852C23.7603 44.4729 22.2655 40.4906 25.5874 34.6498Z" fill="#AA59D9"/>
<path d="M71.2304 21.4158H56.3304C60.7866 24.9051 61.9847 27.2931 62.0392 32.2436H73.4987C73.4987 27.2338 72.9364 25.0248 71.2304 21.4158Z" fill="#AA59D9"/>
<path d="M71.2798 44.7257H56.3304C60.8014 41.4787 62.0035 39.2566 62.0582 34.6498H73.5556C73.5556 39.3118 72.9914 41.3674 71.2798 44.7257Z" fill="#7725A6"/>
</svg>
