<svg width="124" height="90" viewBox="0 0 150 147" fill="none" xmlns="http://www.w3.org/2000/svg">
<path d="M43.0296 28.944C35.7449 29.1107 29.5177 33.945 24.3479 43.4229C18.9196 54.0916 16.2407 65.951 16.2877 79.001C16.3817 80.5727 16.5462 80.7156 16.8047 79.4535C18.9901 69.8564 21.2695 62.355 23.6429 56.9254C25.9693 51.472 28.5542 46.995 31.3741 43.542C37.8598 35.8977 43.4761 34.6594 48.2464 39.827C53.4632 45.9234 56.236 56.211 56.565 70.6423C56.283 90.0507 53.7686 104.72 49.0218 114.698C43.0766 126.843 36.9668 130.892 30.7631 126.796C22.3035 119.961 17.6037 104.815 16.6637 81.4062C16.3347 80.5966 16.0292 81.1919 15.7942 83.1923C15.3477 85.6213 15.0423 88.2885 14.8543 91.1223C14.1493 103.839 15.8177 114.627 19.8361 123.486C23.9484 131.892 29.4237 136.155 36.2619 136.297C43.6406 136.178 50.3613 131.297 56.4475 121.604C62.5103 111.483 66.4111 99.1476 68.1265 84.5497C68.761 69.023 66.6931 55.8062 61.9463 44.8994C57.1525 34.5165 50.8783 29.1822 43.1471 28.8964" fill="url(#paint0_linear_3_46)"/>
<path d="M97.0773 23.181C93.294 16.8941 86.0563 13.8221 75.3642 14.0126C63.5442 14.5842 52.0532 18.1563 40.9147 24.7289C39.6222 25.5862 39.5752 25.8244 40.7737 25.4195C50.0793 22.5381 57.6225 20.7758 63.4267 20.1567C69.2545 19.4661 74.3538 19.4899 78.7246 20.2519C88.5002 22.1332 92.3775 26.4435 90.3331 33.2067C87.7247 40.8272 80.3225 48.4 68.15 55.9253C51.4187 65.3794 37.6248 70.5232 26.7448 71.3329C13.3738 72.1902 6.8881 68.8563 7.28758 61.3548C8.95601 50.4957 19.5306 38.803 39.0583 26.253C39.5752 25.5624 38.9173 25.6101 37.1078 26.3959C34.8049 27.2294 32.3845 28.2772 29.8466 29.5394C18.6376 35.2785 10.225 42.137 4.67919 50.0908C-0.443593 57.9018 -1.36005 64.8555 1.92981 70.9043C5.71315 77.3102 13.2563 80.7632 24.5829 81.2633C36.2619 81.5253 48.7634 78.7867 62.0873 72.9761C75.6697 65.7604 85.9388 57.3541 92.871 47.7332C99.3567 38.3267 100.767 30.1585 97.1478 23.2287" fill="url(#paint1_linear_3_46)"/>
<path d="M129.036 67.737C132.514 61.2596 131.527 53.3772 126.005 44.0897C119.589 33.9926 110.801 25.7053 99.6152 19.2279C98.2288 18.5135 98.0173 18.5849 98.9572 19.4423C106.077 26.1578 111.341 31.9208 114.796 36.6836C118.297 41.4702 120.835 45.9472 122.362 50.1623C125.652 59.6879 123.89 65.2365 117.098 66.8083C109.273 68.3324 99.1217 65.6176 86.5968 58.7115C70.1709 48.7573 58.8679 39.2079 52.7112 30.0871C45.309 18.7755 44.9095 11.4169 51.5127 8.01154C61.5938 4.01079 76.8682 7.46382 97.3593 18.3468C98.2053 18.4421 97.8528 17.8943 96.2549 16.7036C94.3984 15.0843 92.2835 13.4888 89.9336 11.8932C79.4296 4.91572 69.372 0.986412 59.7844 0.0814803C50.5493 -0.513869 44.1575 2.1533 40.6092 8.08298C37.0138 14.608 37.8363 22.9667 43.0766 33.1353C48.6928 43.5182 57.2935 53.1152 68.902 61.9026C81.85 70.2137 94.1869 75.0241 105.866 76.2862C117.145 77.2626 124.853 74.4287 128.942 67.7846" fill="url(#paint2_linear_3_46)"/>
<path d="M106.947 118.056C114.232 117.889 120.459 113.055 125.629 103.577C131.057 92.9084 133.736 81.049 133.689 67.999C133.595 66.4272 133.43 66.2844 133.172 67.5465C130.986 77.1435 128.707 84.6449 126.334 90.0745C124.007 95.5279 121.422 100.005 118.602 103.458C112.117 111.102 106.5 112.341 101.73 107.173C96.5134 101.077 93.7405 90.7889 93.4115 76.3577C93.6935 56.9493 96.2079 42.2799 100.955 32.3018C106.9 20.1567 113.01 16.1083 119.213 20.2043C127.673 27.0389 132.373 42.1846 133.313 65.5938C133.642 66.4034 133.947 65.8081 134.182 63.8077C134.629 61.3787 134.934 58.7115 135.122 55.8776C135.827 43.161 134.159 32.3732 130.14 23.5144C126.028 15.1081 120.553 10.8454 113.715 10.7025C106.336 10.8216 99.6152 15.7035 93.529 25.3957C87.4662 35.5167 83.5654 47.8523 81.85 62.4503C81.2155 77.977 83.2834 91.1938 88.0302 102.101C92.824 112.483 99.0983 117.818 106.829 118.104" fill="url(#paint3_linear_3_46)"/>
<path d="M20.9405 79.263C17.4627 85.7404 18.4496 93.6228 23.9719 102.91C30.3871 113.007 39.1758 121.295 50.3613 127.772C51.7477 128.486 51.9592 128.415 51.0193 127.558C43.8991 120.842 38.6353 115.079 35.1809 110.316C31.6796 105.53 29.1417 101.053 27.6142 96.8377C24.3244 87.3121 26.0868 81.7635 32.878 80.1917C40.7032 78.6676 50.8548 81.3824 63.3798 88.2885C79.8056 98.2427 91.1086 107.792 97.2653 116.913C104.668 128.225 105.067 135.583 98.4638 138.988C88.3827 142.989 73.1083 139.536 52.6172 128.653C51.7712 128.558 52.1237 129.106 53.7217 130.296C55.5781 131.916 57.693 133.511 60.0429 135.107C70.547 142.084 80.6045 146.014 90.1921 146.919C99.4272 147.514 105.819 144.847 109.367 138.917C112.963 132.392 112.14 124.033 106.9 113.865C101.284 103.482 92.683 93.8848 81.0745 85.0974C68.1266 76.7863 55.7896 71.9759 44.1106 70.7138C32.831 69.7374 25.1233 72.5713 21.0345 79.2154" fill="url(#paint4_linear_3_46)"/>
<path d="M52.8992 123.819C56.6826 130.106 63.9203 133.178 74.6123 132.987C86.4323 132.416 97.9233 128.844 109.062 122.271C110.354 121.414 110.401 121.176 109.203 121.58C99.8973 124.462 92.3541 126.224 86.5498 126.843C80.7221 127.534 75.6228 127.51 71.252 126.748C61.4764 124.867 57.599 120.556 59.6434 113.793C62.2518 106.173 69.654 98.6 81.8265 91.0747C98.5578 81.6206 112.352 76.4768 123.232 75.6671C136.603 74.8098 143.088 78.1437 142.689 85.6451C141.068 96.4805 130.493 108.173 110.942 120.723C110.425 121.414 111.083 121.366 112.892 120.58C115.195 119.747 117.616 118.699 120.153 117.437C131.362 111.698 139.775 104.839 145.321 96.8854C150.444 89.0744 151.36 82.1207 148.07 76.0719C144.287 69.666 136.744 66.2129 125.441 65.7128C113.762 65.4509 101.26 68.1895 87.9363 74.0001C74.3538 81.2157 64.0848 89.6221 57.1525 99.2429C50.6668 108.649 49.2569 116.818 52.8757 123.748" fill="url(#paint5_linear_3_46)"/>
<defs>
<linearGradient id="paint0_linear_3_46" x1="14.6971" y1="28.8964" x2="68.2383" y2="28.8964" gradientUnits="userSpaceOnUse">
<stop stop-color="#904A2B"/>
<stop offset="0.333333" stop-color="#B78E70"/>
<stop offset="0.666667" stop-color="#9C5227"/>
<stop offset="1" stop-color="#9B5128" stop-opacity="0.61"/>
</linearGradient>
<linearGradient id="paint1_linear_3_46" x1="0" y1="14.0043" x2="99.0988" y2="14.0043" gradientUnits="userSpaceOnUse">
<stop stop-color="#904A2B"/>
<stop offset="0.333333" stop-color="#B78E70"/>
<stop offset="0.666667" stop-color="#9C5227"/>
<stop offset="1" stop-color="#9B5128" stop-opacity="0.61"/>
</linearGradient>
<linearGradient id="paint2_linear_3_46" x1="38.4147" y1="0" x2="131.064" y2="0" gradientUnits="userSpaceOnUse">
<stop stop-color="#904A2B"/>
<stop offset="0.333333" stop-color="#B78E70"/>
<stop offset="0.666667" stop-color="#9C5227"/>
<stop offset="1" stop-color="#9B5128" stop-opacity="0.61"/>
</linearGradient>
<linearGradient id="paint3_linear_3_46" x1="81.7382" y1="10.7025" x2="135.279" y2="10.7025" gradientUnits="userSpaceOnUse">
<stop stop-color="#904A2B"/>
<stop offset="0.333333" stop-color="#B78E70"/>
<stop offset="0.666667" stop-color="#9C5227"/>
<stop offset="1" stop-color="#9B5128" stop-opacity="0.61"/>
</linearGradient>
<linearGradient id="paint4_linear_3_46" x1="18.9129" y1="70.5261" x2="111.562" y2="70.5261" gradientUnits="userSpaceOnUse">
<stop stop-color="#904A2B"/>
<stop offset="0.333333" stop-color="#B78E70"/>
<stop offset="0.666667" stop-color="#9C5227"/>
<stop offset="1" stop-color="#9B5128" stop-opacity="0.61"/>
</linearGradient>
<linearGradient id="paint5_linear_3_46" x1="50.9247" y1="65.6957" x2="150" y2="65.6957" gradientUnits="userSpaceOnUse">
<stop stop-color="#904A2B"/>
<stop offset="0.333333" stop-color="#B78E70"/>
<stop offset="0.666667" stop-color="#9C5227"/>
<stop offset="1" stop-color="#9B5128" stop-opacity="0.61"/>
</linearGradient>
</defs>
</svg>
